<svg xmlns="http://www.w3.org/2000/svg" viewBox="0 0 120 120" width="120" height="120">
  <defs>
    <radialGradient id="bg" cx="50%" cy="50%" r="50%">
      <stop offset="0%" stop-color="#1a0a2e"/>
      <stop offset="100%" stop-color="#0a0a1a"/>
    </radialGradient>
    <radialGradient id="glow" cx="50%" cy="60%" r="40%">
      <stop offset="0%" stop-color="#ff6b35" stop-opacity="0.9"/>
      <stop offset="100%" stop-color="#ff6b35" stop-opacity="0"/>
    </radialGradient>
  </defs>
  <rect width="120" height="120" fill="url(#bg)" rx="8"/>
  <ellipse cx="60" cy="72" rx="30" ry="10" fill="url(#glow)"/>
  <!-- Fox fire flame -->
  <path d="M60 20 C55 35 45 40 48 55 C50 65 55 68 60 70 C65 68 70 65 72 55 C75 40 65 35 60 20Z" fill="#ff8c42" opacity="0.9"/>
  <path d="M60 30 C57 42 52 46 54 56 C56 63 58 66 60 68 C62 66 64 63 66 56 C68 46 63 42 60 30Z" fill="#ffcc44" opacity="0.95"/>
  <path d="M60 40 C58 48 56 52 57 58 C58 62 59 64 60 65 C61 64 62 62 63 58 C64 52 62 48 60 40Z" fill="#ffffff" opacity="0.8"/>
  <!-- Sparkles -->
  <circle cx="45" cy="45" r="2" fill="#ff8c42" opacity="0.7"/>
  <circle cx="75" cy="50" r="2" fill="#ffcc44" opacity="0.7"/>
  <circle cx="40" cy="60" r="1.5" fill="#ff6b35" opacity="0.5"/>
  <circle cx="80" cy="42" r="1.5" fill="#ffcc44" opacity="0.5"/>
  <!-- Fox ears -->
  <path d="M42 45 C38 35 32 30 35 25 C40 32 44 38 42 45Z" fill="#ff8c42" opacity="0.6"/>
  <path d="M78 45 C82 35 88 30 85 25 C80 32 76 38 78 45Z" fill="#ff8c42" opacity="0.6"/>
</svg>
